STARTFONT 2.1
COMMENT $XConsortium: lutRS19.bdf,v 1.3 94/04/02 16:11:44 gildea Exp $
FONT -B&H-LucidaTypewriter-Medium-R-Normal-Sans-19-190-75-75-M-110-ISO8859-1
SIZE 19 72 72
FONTBOUNDINGBOX 12 22 5 -4
STARTPROPERTIES 20
FONTNAME_REGISTRY ""
FOUNDRY "B&H"
FAMILY_NAME "LucidaTypewriter"
WEIGHT_NAME "Medium"
SLANT "R"
SETWIDTH_NAME "Normal"
ADD_STYLE_NAME "Sans"
PIXEL_SIZE 19
POINT_SIZE 190
RESOLUTION_X 75
RESOLUTION_Y 75
SPACING "M"
AVERAGE_WIDTH "110"
CHARSET_REGISTRY "ISO8859"
CHARSET_ENCODING "1"
COPYRIGHT "Copyright Bigelow & Holmes 1986, 1985."
FONT_ASCENT 18
FONT_DESCENT 4
DEFAULT_CHAR 0
FACE_NAME "Lucida Sans Typewriter"
ENDPROPERTIES
CHARS 190
STARTCHAR space
ENCODING 32
SWIDTH 602 0
DWIDTH 11 0
BBX 1 1 0 0
BITMAP
00
ENDCHAR
STARTCHAR exclam
ENCODING 33
SWIDTH 602 0
DWIDTH 11 0
BBX 2 14 5 0
BITMAP
c0
c0
c0
c0
c0
c0
80
80
80
80
00
00
80
80
ENDCHAR
STARTCHAR quotedbl
ENCODING 34
SWIDTH 602 0
DWIDTH 11 0
BBX 6 5 3 9
BITMAP
cc
cc
cc
84
84
ENDCHAR
STARTCHAR numbersign
ENCODING 35
SWIDTH 602 0
DWIDTH 11 0
BBX 11 14 0 0
BITMAP
04c0
0c80
0880
0880
7fe0
1100
1100
1100
ffc0
2200
2200
2200
2400
4400
ENDCHAR
STARTCHAR dollar
ENCODING 36
SWIDTH 602 0
DWIDTH 11 0
BBX 7 17 2 -2
BITMAP
10
7e
d2
d0
d0
d0
70
38
1c
1e
16
16
16
dc
fc
10
10
ENDCHAR
STARTCHAR percent
ENCODING 37
SWIDTH 602 0
DWIDTH 11 0
BBX 10 14 1 0
BITMAP
70c0
d880
8900
8900
da00
7600
0400
0b80
1ec0
1440
2440
2440
46c0
c380
ENDCHAR
STARTCHAR ampersand
ENCODING 38
SWIDTH 602 0
DWIDTH 11 0
BBX 11 14 0 0
BITMAP
1e00
3300
3300
3300
3600
1c00
3800
4c60
ce60
c640
c7c0
c380
6380
3ee0
ENDCHAR
STARTCHAR quoteright
ENCODING 39
SWIDTH 602 0
DWIDTH 11 0
BBX 3 5 4 9
BITMAP
e0
e0
20
60
c0
ENDCHAR
STARTCHAR parenleft
ENCODING 40
SWIDTH 602 0
DWIDTH 11 0
BBX 7 17 3 -3
BITMAP
0e
1c
30
60
60
c0
c0
c0
c0
c0
c0
40
60
20
30
1c
06
ENDCHAR
STARTCHAR parenright
ENCODING 41
SWIDTH 602 0
DWIDTH 11 0
BBX 7 17 1 -3
BITMAP
c0
70
18
0c
0c
06
06
06
06
06
06
06
0c
0c
18
70
c0
ENDCHAR
STARTCHAR asterisk
ENCODING 42
SWIDTH 602 0
DWIDTH 11 0
BBX 8 8 2 6
BITMAP
18
18
db
e7
00
3c
66
24
ENDCHAR
STARTCHAR plus
ENCODING 43
SWIDTH 602 0
DWIDTH 11 0
BBX 9 10 1 0
BITMAP
0800
0800
0800
0800
ff80
0800
0800
0800
0800
0800
ENDCHAR
STARTCHAR comma
ENCODING 44
SWIDTH 602 0
DWIDTH 11 0
BBX 3 7 4 -4
BITMAP
e0
e0
e0
20
60
60
c0
ENDCHAR
STARTCHAR minus
ENCODING 45
SWIDTH 602 0
DWIDTH 11 0
BBX 10 1 1 4
BITMAP
ffc0
ENDCHAR
STARTCHAR period
ENCODING 46
SWIDTH 602 0
DWIDTH 11 0
BBX 3 2 4 0
BITMAP
e0
e0
ENDCHAR
STARTCHAR slash
ENCODING 47
SWIDTH 602 0
DWIDTH 11 0
BBX 10 17 1 -3
BITMAP
00c0
0080
0180
0100
0300
0200
0600
0400
0c00
0800
1800
1000
3000
2000
6000
4000
c000
ENDCHAR
STARTCHAR zero
ENCODING 48
SWIDTH 602 0
DWIDTH 11 0
BBX 9 14 1 0
BITMAP
1c00
6300
6300
c180
c180
c180
c180
c180
c180
c180
c180
6300
6300
1c00
ENDCHAR
STARTCHAR one
ENCODING 49
SWIDTH 602 0
DWIDTH 11 0
BBX 10 14 1 0
BITMAP
0400
7c00
8c00
0c00
0c00
0c00
0c00
0c00
0c00
0c00
0c00
0c00
0c00
ffc0
ENDCHAR
STARTCHAR two
ENCODING 50
SWIDTH 602 0
DWIDTH 11 0
BBX 8 14 1 0
BITMAP
7c
86
03
03
03
03
06
0c
18
30
60
60
c0
ff
ENDCHAR
STARTCHAR three
ENCODING 51
SWIDTH 602 0
DWIDTH 11 0
BBX 8 14 2 0
BITMAP
fc
87
03
03
03
06
78
0e
03
03
03
03
86
fc
ENDCHAR
STARTCHAR four
ENCODING 52
SWIDTH 602 0
DWIDTH 11 0
BBX 10 14 1 0
BITMAP
0300
0700
0700
0b00
1300
3300
2300
4300
c300
ffc0
0300
0300
0300
0300
ENDCHAR
STARTCHAR five
ENCODING 53
SWIDTH 602 0
DWIDTH 11 0
BBX 7 14 3 0
BITMAP
fe
80
80
80
80
f0
1c
0c
06
06
06
06
8c
f8
ENDCHAR
STARTCHAR six
ENCODING 54
SWIDTH 602 0
DWIDTH 11 0
BBX 9 14 1 0
BITMAP
1f00
3100
6000
4000
c000
de00
e300
c180
c180
c180
c180
4180
6300
1e00
ENDCHAR
STARTCHAR seven
ENCODING 55
SWIDTH 602 0
DWIDTH 11 0
BBX 8 14 2 0
BITMAP
ff
ff
02
02
04
04
08
08
10
10
30
20
60
60
ENDCHAR
STARTCHAR eight
ENCODING 56
SWIDTH 602 0
DWIDTH 11 0
BBX 9 14 1 0
BITMAP
1e00
3300
6100
6100
7300
3e00
1c00
2f00
4380
c180
c180
c180
6300
3e00
ENDCHAR
STARTCHAR nine
ENCODING 57
SWIDTH 602 0
DWIDTH 11 0
BBX 9 14 1 0
BITMAP
3c00
6300
c100
c180
c180
c180
c180
6380
3d80
0180
0100
0300
4600
7c00
ENDCHAR
STARTCHAR colon
ENCODING 58
SWIDTH 602 0
DWIDTH 11 0
BBX 2 10 5 0
BITMAP
c0
c0
00
00
00
00
00
00
c0
c0
ENDCHAR
STARTCHAR semicolon
ENCODING 59
SWIDTH 602 0
DWIDTH 11 0
BBX 2 14 5 -4
BITMAP
c0
c0
00
00
00
00
00
c0
c0
c0
40
40
40
80
ENDCHAR
STARTCHAR less
ENCODING 60
SWIDTH 602 0
DWIDTH 11 0
BBX 10 10 1 0
BITMAP
0040
01c0
0700
1c00
f000
7000
1c00
0700
01c0
0040
ENDCHAR
STARTCHAR equal
ENCODING 61
SWIDTH 602 0
DWIDTH 11 0
BBX 10 5 1 2
BITMAP
ffc0
0000
0000
0000
ffc0
ENDCHAR
STARTCHAR greater
ENCODING 62
SWIDTH 602 0
DWIDTH 11 0
BBX 10 10 1 0
BITMAP
8000
e000
3800
0e00
0380
03c0
0e00
3800
e000
8000
ENDCHAR
STARTCHAR question
ENCODING 63
SWIDTH 602 0
DWIDTH 11 0
BBX 9 14 1 0
BITMAP
fe00
8300
8180
0180
0100
0200
0400
0800
1800
1800
0000
0000
1800
1800
ENDCHAR
STARTCHAR at
ENCODING 64
SWIDTH 602 0
DWIDTH 11 0
BBX 11 14 1 0
BITMAP
0f80
30c0
6040
43c0
8440
8840
8840
88c0
88c0
89c0
4760
4000
3080
1f00
ENDCHAR
STARTCHAR A
ENCODING 65
SWIDTH 602 0
DWIDTH 11 0
BBX 11 14 0 0
BITMAP
0600
0e00
0e00
0b00
1300
1300
1180
2180
2180
3fc0
40c0
40c0
4060
8060
ENDCHAR
STARTCHAR B
ENCODING 66
SWIDTH 602 0
DWIDTH 11 0
BBX 9 14 1 0
BITMAP
fe00
c700
c300
c300
c300
c600
fc00
c600
c300
c180
c180
c180
c300
fe00
ENDCHAR
STARTCHAR C
ENCODING 67
SWIDTH 602 0
DWIDTH 11 0
BBX 10 14 1 0
BITMAP
0fc0
3840
6000
6000
c000
c000
c000
c000
c000
c000
6000
6000
3840
0fc0
ENDCHAR
STARTCHAR D
ENCODING 68
SWIDTH 602 0
DWIDTH 11 0
BBX 10 14 1 0
BITMAP
fe00
c300
c180
c0c0
c0c0
c0c0
c0c0
c0c0
c0c0
c0c0
c180
c180
c300
fe00
ENDCHAR
STARTCHAR E
ENCODING 69
SWIDTH 602 0
DWIDTH 11 0
BBX 9 14 2 0
BITMAP
ff80
c000
c000
c000
c000
c000
ff00
c000
c000
c000
c000
c000
c000
ff80
ENDCHAR
STARTCHAR F
ENCODING 70
SWIDTH 602 0
DWIDTH 11 0
BBX 9 14 2 0
BITMAP
ff80
c000
c000
c000
c000
c000
ff00
c000
c000
c000
c000
c000
c000
c000
ENDCHAR
STARTCHAR G
ENCODING 71
SWIDTH 602 0
DWIDTH 11 0
BBX 10 14 1 0
BITMAP
0fc0
3040
6000
6000
c000
c000
c000
c000
c0c0
c0c0
60c0
60c0
38c0
0fc0
ENDCHAR
STARTCHAR H
ENCODING 72
SWIDTH 602 0
DWIDTH 11 0
BBX 9 14 1 0
BITMAP
c180
c180
c180
c180
c180
c180
ff80
c180
c180
c180
c180
c180
c180
c180
ENDCHAR
STARTCHAR I
ENCODING 73
SWIDTH 602 0
DWIDTH 11 0
BBX 8 14 2 0
BITMAP
ff
18
18
18
18
18
18
18
18
18
18
18
18
ff
ENDCHAR
STARTCHAR J
ENCODING 74
SWIDTH 602 0
DWIDTH 11 0
BBX 7 14 2 0
BITMAP
7e
06
06
06
06
06
06
06
06
06
06
06
8c
f8
ENDCHAR
STARTCHAR K
ENCODING 75
SWIDTH 602 0
DWIDTH 11 0
BBX 10 14 1 0
BITMAP
c180
c300
c200
c400
c800
d800
d000
f800
dc00
ce00
c600
c300
c380
c1c0
ENDCHAR
STARTCHAR L
ENCODING 76
SWIDTH 602 0
DWIDTH 11 0
BBX 8 14 2 0
BITMAP
c0
c0
c0
c0
c0
c0
c0
c0
c0
c0
c0
c0
c0
ff
ENDCHAR
STARTCHAR M
ENCODING 77
SWIDTH 602 0
DWIDTH 11 0
BBX 10 14 1 0
BITMAP
c0c0
c0c0
e1c0
a140
a140
a140
9240
9240
9240
9240
8c40
8c40
8c40
8040
ENDCHAR
STARTCHAR N
ENCODING 78
SWIDTH 602 0
DWIDTH 11 0
BBX 9 14 1 0
BITMAP
c080
e080
e080
f080
b080
9880
9880
8c80
8e80
8680
8780
8380
8180
8180
ENDCHAR
STARTCHAR O
ENCODING 79
SWIDTH 602 0
DWIDTH 11 0
BBX 10 14 1 0
BITMAP
1e00
3300
6180
4080
c0c0
c0c0
c0c0
c0c0
c0c0
c0c0
4080
6180
3300
1e00
ENDCHAR
STARTCHAR P
ENCODING 80
SWIDTH 602 0
DWIDTH 11 0
BBX 9 14 2 0
BITMAP
fe00
c380
c180
c180
c180
c180
c300
fc00
c000
c000
c000
c000
c000
c000
ENDCHAR
STARTCHAR Q
ENCODING 81
SWIDTH 602 0
DWIDTH 11 0
BBX 11 18 1 -4
BITMAP
1e00
3300
6180
4080
c0c0
c0c0
c0c0
c0c0
c0c0
c0c0
40c0
6180
3380
1f00
0200
0100
00e0
0040
ENDCHAR
STARTCHAR R
ENCODING 82
SWIDTH 602 0
DWIDTH 11 0
BBX 10 14 1 0
BITMAP
fc00
c700
c300
c300
c300
c700
fe00
cc00
cc00
c600
c700
c300
c180
c1c0
ENDCHAR
STARTCHAR S
ENCODING 83
SWIDTH 602 0
DWIDTH 11 0
BBX 9 14 1 0
BITMAP
3f00
6100
c000
c000
e000
7000
3c00
0f00
0380
0180
0180
0180
8300
7e00
ENDCHAR
STARTCHAR T
ENCODING 84
SWIDTH 602 0
DWIDTH 11 0
BBX 12 14 0 0
BITMAP
fff0
0600
0600
0600
0600
0600
0600
0600
0600
0600
0600
0600
0600
0600
ENDCHAR
STARTCHAR U
ENCODING 85
SWIDTH 602 0
DWIDTH 11 0
BBX 9 14 1 0
BITMAP
c080
c080
c080
c080
c080
c080
c080
c080
c080
c080
c080
c080
6100
3e00
ENDCHAR
STARTCHAR V
ENCODING 86
SWIDTH 602 0
DWIDTH 11 0
BBX 11 14 0 0
BITMAP
c020
c040
6040
6040
6080
3080
3080
3100
1900
1900
1a00
0e00
0e00
0c00
ENDCHAR
STARTCHAR W
ENCODING 87
SWIDTH 602 0
DWIDTH 11 0
BBX 11 14 0 0
BITMAP
8020
8c20
8c20
8c60
9e40
de40
da40
5240
52c0
53c0
73c0
7180
6180
6180
ENDCHAR
STARTCHAR X
ENCODING 88
SWIDTH 602 0
DWIDTH 11 0
BBX 11 14 0 0
BITMAP
e040
60c0
3080
3900
1b00
0e00
0e00
0e00
0f00
1300
3180
21c0
40c0
c060
ENDCHAR
STARTCHAR Y
ENCODING 89
SWIDTH 602 0
DWIDTH 11 0
BBX 12 14 0 0
BITMAP
e030
6020
7040
3080
1880
1d00
0f00
0600
0600
0600
0600
0600
0600
0600
ENDCHAR
STARTCHAR Z
ENCODING 90
SWIDTH 602 0
DWIDTH 11 0
BBX 10 14 1 0
BITMAP
ffc0
01c0
0180
0380
0700
0600
0e00
1c00
1800
3000
7000
6000
c000
ffc0
ENDCHAR
STARTCHAR bracketleft
ENCODING 91
SWIDTH 602 0
DWIDTH 11 0
BBX 5 17 4 -3
BITMAP
f8
80
80
80
80
80
80
80
80
80
80
80
80
80
80
80
f8
ENDCHAR
STARTCHAR backslash
ENCODING 92
SWIDTH 602 0
DWIDTH 11 0
BBX 10 17 1 -3
BITMAP
c000
4000
6000
2000
3000
1000
1800
0800
0c00
0400
0600
0200
0300
0100
0180
0080
00c0
ENDCHAR
STARTCHAR bracketright
ENCODING 93
SWIDTH 602 0
DWIDTH 11 0
BBX 5 17 2 -3
BITMAP
f8
08
08
08
08
08
08
08
08
08
08
08
08
08
08
08
f8
ENDCHAR
STARTCHAR asciicircum
ENCODING 94
SWIDTH 602 0
DWIDTH 11 0
BBX 10 10 1 3
BITMAP
0400
0c00
0c00
1200
1200
2100
2100
4080
4080
c0c0
ENDCHAR
STARTCHAR underscore
ENCODING 95
SWIDTH 602 0
DWIDTH 11 0
BBX 11 1 0 -2
BITMAP
ffe0
ENDCHAR
STARTCHAR quoteleft
ENCODING 96
SWIDTH 602 0
DWIDTH 11 0
BBX 3 5 4 9
BITMAP
60
c0
80
e0
e0
ENDCHAR
STARTCHAR a
ENCODING 97
SWIDTH 602 0
DWIDTH 11 0
BBX 10 10 1 0
BITMAP
7e00
4300
0300
0300
3f00
6300
c300
c300
c700
7dc0
ENDCHAR
STARTCHAR b
ENCODING 98
SWIDTH 602 0
DWIDTH 11 0
BBX 9 14 1 0
BITMAP
c000
c000
c000
c000
de00
e300
c180
c180
c180
c180
c180
c300
e300
de00
ENDCHAR
STARTCHAR c
ENCODING 99
SWIDTH 602 0
DWIDTH 11 0
BBX 9 10 1 0
BITMAP
1f80
7080
6000
c000
c000
c000
c000
6000
7080
1f80
ENDCHAR
STARTCHAR d
ENCODING 100
SWIDTH 602 0
DWIDTH 11 0
BBX 9 14 1 0
BITMAP
0180
0180
0180
0180
3d80
6380
6180
c180
c180
c180
c180
c180
6380
3d80
ENDCHAR
STARTCHAR e
ENCODING 101
SWIDTH 602 0
DWIDTH 11 0
BBX 9 10 1 0
BITMAP
1e00
6300
4180
c180
ff80
c000
c000
4000
6080
1f80
ENDCHAR
STARTCHAR f
ENCODING 102
SWIDTH 602 0
DWIDTH 11 0
BBX 10 15 1 0
BITMAP
0fc0
1c00
1800
1800
1800
ffc0
1800
1800
1800
1800
1800
1800
1800
1800
1800
ENDCHAR
STARTCHAR g
ENCODING 103
SWIDTH 602 0
DWIDTH 11 0
BBX 9 14 1 -4
BITMAP
1e80
6380
6180
c180
c180
c180
c180
c180
6380
3d80
0180
0180
4300
7e00
ENDCHAR
STARTCHAR h
ENCODING 104
SWIDTH 602 0
DWIDTH 11 0
BBX 8 14 2 0
BITMAP
c0
c0
c0
c0
ce
df
e3
c3
c3
c3
c3
c3
c3
c3
ENDCHAR
STARTCHAR i
ENCODING 105
SWIDTH 602 0
DWIDTH 11 0
BBX 6 14 1 0
BITMAP
0c
0c
00
00
fc
0c
0c
0c
0c
0c
0c
0c
0c
0c
ENDCHAR
STARTCHAR j
ENCODING 106
SWIDTH 602 0
DWIDTH 11 0
BBX 7 18 1 -4
BITMAP
06
06
00
00
7e
06
06
06
06
06
06
06
06
06
06
06
8e
fc
ENDCHAR
STARTCHAR k
ENCODING 107
SWIDTH 602 0
DWIDTH 11 0
BBX 9 14 2 0
BITMAP
c000
c000
c000
c000
c300
c400
cc00
d800
d000
f800
dc00
ce00
c700
c380
ENDCHAR
STARTCHAR l
ENCODING 108
SWIDTH 602 0
DWIDTH 11 0
BBX 6 14 1 0
BITMAP
fc
0c
0c
0c
0c
0c
0c
0c
0c
0c
0c
0c
0c
0c
ENDCHAR
STARTCHAR m
ENCODING 109
SWIDTH 602 0
DWIDTH 11 0
BBX 11 10 0 0
BITMAP
b9e0
e720
c620
8420
8420
8420
8420
8420
8420
8420
ENDCHAR
STARTCHAR n
ENCODING 110
SWIDTH 602 0
DWIDTH 11 0
BBX 8 10 2 0
BITMAP
ce
df
e3
c3
c3
c3
c3
c3
c3
c3
ENDCHAR
STARTCHAR o
ENCODING 111
SWIDTH 602 0
DWIDTH 11 0
BBX 10 10 1 0
BITMAP
1e00
6180
6180
c0c0
c0c0
c0c0
c0c0
6180
6180
1e00
ENDCHAR
STARTCHAR p
ENCODING 112
SWIDTH 602 0
DWIDTH 11 0
BBX 9 14 2 -4
BITMAP
de00
e300
c180
c180
c180
c180
c180
c300
e300
de00
c000
c000
c000
c000
ENDCHAR
STARTCHAR q
ENCODING 113
SWIDTH 602 0
DWIDTH 11 0
BBX 9 14 1 -4
BITMAP
3d80
6380
6180
c180
c180
c180
c180
c180
6380
3d80
0180
0180
0180
0180
ENDCHAR
STARTCHAR r
ENCODING 114
SWIDTH 602 0
DWIDTH 11 0
BBX 8 10 3 0
BITMAP
df
f1
e1
c0
c0
c0
c0
c0
c0
c0
ENDCHAR
STARTCHAR s
ENCODING 115
SWIDTH 602 0
DWIDTH 11 0
BBX 8 10 2 0
BITMAP
3e
c2
c0
e0
7c
1f
07
03
86
fc
ENDCHAR
STARTCHAR t
ENCODING 116
SWIDTH 602 0
DWIDTH 11 0
BBX 10 13 1 0
BITMAP
1800
1800
1800
ffc0
1800
1800
1800
1800
1800
1800
1800
1c00
0fc0
ENDCHAR
STARTCHAR u
ENCODING 117
SWIDTH 602 0
DWIDTH 11 0
BBX 8 10 2 0
BITMAP
c3
c3
c3
c3
c3
c3
c3
c7
fb
73
ENDCHAR
STARTCHAR v
ENCODING 118
SWIDTH 602 0
DWIDTH 11 0
BBX 10 10 1 0
BITMAP
c0c0
e080
6080
6100
3100
3200
3a00
1a00
1c00
0c00
ENDCHAR
STARTCHAR w
ENCODING 119
SWIDTH 602 0
DWIDTH 11 0
BBX 11 10 0 0
BITMAP
c020
c420
ca40
6a40
6a40
6a40
71c0
7180
7180
3180
ENDCHAR
STARTCHAR x
ENCODING 120
SWIDTH 602 0
DWIDTH 11 0
BBX 10 10 1 0
BITMAP
e080
7100
3300
1a00
1c00
0e00
1600
2300
6380
c1c0
ENDCHAR
STARTCHAR y
ENCODING 121
SWIDTH 602 0
DWIDTH 11 0
BBX 10 14 1 -4
BITMAP
c0c0
e080
6080
6100
3100
3200
1a00
1a00
1c00
0c00
0800
0800
1000
6000
ENDCHAR
STARTCHAR z
ENCODING 122
SWIDTH 602 0
DWIDTH 11 0
BBX 9 10 1 0
BITMAP
ff80
0100
0200
0400
0c00
1800
3000
2000
4000
ff80
ENDCHAR
STARTCHAR braceleft
ENCODING 123
SWIDTH 602 0
DWIDTH 11 0
BBX 7 17 2 -3
BITMAP
1e
30
30
30
10
10
10
30
c0
30
10
10
30
30
30
30
1e
ENDCHAR
STARTCHAR bar
ENCODING 124
SWIDTH 602 0
DWIDTH 11 0
BBX 1 17 5 -3
BITMAP
80
80
80
80
80
80
80
80
80
80
80
80
80
80
80
80
80
ENDCHAR
STARTCHAR braceright
ENCODING 125
SWIDTH 602 0
DWIDTH 11 0
BBX 7 17 2 -3
BITMAP
f0
18
18
18
18
10
10
18
0e
18
10
10
18
18
18
18
f0
ENDCHAR
STARTCHAR asciitilde
ENCODING 126
SWIDTH 602 0
DWIDTH 11 0
BBX 10 4 1 3
BITMAP
7040
4840
8480
8380
ENDCHAR
STARTCHAR exclamdown
ENCODING 161
SWIDTH 602 0
DWIDTH 11 0
BBX 2 14 5 -4
BITMAP
80
80
00
00
80
80
80
80
c0
c0
c0
c0
c0
c0
ENDCHAR
STARTCHAR cent
ENCODING 162
SWIDTH 602 0
DWIDTH 11 0
BBX 7 14 2 0
BITMAP
08
08
3e
6a
e8
c8
c8
c8
c8
48
6a
3e
08
08
ENDCHAR
STARTCHAR sterling
ENCODING 163
SWIDTH 602 0
DWIDTH 11 0
BBX 8 14 2 0
BITMAP
0f
10
30
30
30
30
fc
30
30
30
30
60
e0
ff
ENDCHAR
STARTCHAR currency
ENCODING 164
SWIDTH 602 0
DWIDTH 11 0
BBX 9 10 1 2
BITMAP
8080
4100
7f00
6300
4100
4100
4100
6300
7f00
8080
ENDCHAR
STARTCHAR yen
ENCODING 165
SWIDTH 602 0
DWIDTH 11 0
BBX 11 14 0 0
BITMAP
c060
60c0
7080
3100
1b00
1e00
0c00
3f80
0c00
3f80
0c00
0c00
0c00
0c00
ENDCHAR
STARTCHAR brokenbar
ENCODING 166
SWIDTH 602 0
DWIDTH 11 0
BBX 1 17 5 -3
BITMAP
80
80
80
80
80
80
80
00
00
00
80
80
80
80
80
80
80
ENDCHAR
STARTCHAR section
ENCODING 167
SWIDTH 602 0
DWIDTH 11 0
BBX 7 18 2 -4
BITMAP
3e
42
80
80
e0
f0
f8
8c
84
c4
e4
78
3c
0e
06
06
8c
f8
ENDCHAR
STARTCHAR dieresis
ENCODING 168
SWIDTH 602 0
DWIDTH 11 0
BBX 5 1 3 13
BITMAP
98
ENDCHAR
STARTCHAR copyright
ENCODING 169
SWIDTH 602 0
DWIDTH 11 0
BBX 10 14 1 0
BITMAP
1f00
2180
4080
8f40
9140
a040
a040
a040
a040
9140
8e40
4080
6100
3e00
ENDCHAR
STARTCHAR ordfeminine
ENCODING 170
SWIDTH 602 0
DWIDTH 11 0
BBX 7 8 2 6
BITMAP
78
84
04
7c
84
84
8c
76
ENDCHAR
STARTCHAR guillemotleft
ENCODING 171
SWIDTH 602 0
DWIDTH 11 0
BBX 9 8 1 1
BITMAP
0880
1100
2200
cc00
4400
2200
1100
0880
ENDCHAR
STARTCHAR logicalnot
ENCODING 172
SWIDTH 602 0
DWIDTH 11 0
BBX 10 4 1 3
BITMAP
ffc0
0040
0040
0040
ENDCHAR
STARTCHAR hyphen
ENCODING 173
SWIDTH 602 0
DWIDTH 11 0
BBX 8 1 2 6
BITMAP
ff
ENDCHAR
STARTCHAR registered
ENCODING 174
SWIDTH 602 0
DWIDTH 11 0
BBX 7 8 2 6
BITMAP
38
44
ba
aa
b2
aa
44
38
ENDCHAR
STARTCHAR macron
ENCODING 175
SWIDTH 602 0
DWIDTH 11 0
BBX 5 1 3 13
BITMAP
f8
ENDCHAR
STARTCHAR degree
ENCODING 176
SWIDTH 602 0
DWIDTH 11 0
BBX 3 3 4 11
BITMAP
e0
a0
e0
ENDCHAR
STARTCHAR plusminus
ENCODING 177
SWIDTH 602 0
DWIDTH 11 0
BBX 9 10 1 0
BITMAP
0800
0800
0800
ff80
0800
0800
0800
0800
0000
ff80
ENDCHAR
STARTCHAR twosuperior
ENCODING 178
SWIDTH 602 0
DWIDTH 11 0
BBX 4 7 -1 7
BITMAP
e0
10
10
20
40
80
f0
ENDCHAR
STARTCHAR threesuperior
ENCODING 179
SWIDTH 602 0
DWIDTH 11 0
BBX 4 7 -1 7
BITMAP
e0
10
10
60
10
10
e0
ENDCHAR
STARTCHAR acute
ENCODING 180
SWIDTH 602 0
DWIDTH 11 0
BBX 4 2 3 12
BITMAP
70
c0
ENDCHAR
STARTCHAR mu
ENCODING 181
SWIDTH 602 0
DWIDTH 11 0
BBX 8 13 2 -3
BITMAP
c3
c3
c3
c3
c3
c3
c3
c7
fb
fb
c0
c0
c0
ENDCHAR
STARTCHAR paragraph
ENCODING 182
SWIDTH 602 0
DWIDTH 11 0
BBX 7 17 2 -3
BITMAP
7e
fa
fa
fa
fa
7a
3a
0a
0a
0a
0a
0a
0a
0a
0a
0a
0a
ENDCHAR
STARTCHAR periodcentered
ENCODING 183
SWIDTH 602 0
DWIDTH 11 0
BBX 2 2 5 4
BITMAP
c0
c0
ENDCHAR
STARTCHAR cedilla
ENCODING 184
SWIDTH 602 0
DWIDTH 11 0
BBX 3 4 5 -4
BITMAP
c0
40
20
e0
ENDCHAR
STARTCHAR onesuperior
ENCODING 185
SWIDTH 602 0
DWIDTH 11 0
BBX 5 7 -1 7
BITMAP
e0
a0
20
20
20
20
f8
ENDCHAR
STARTCHAR ordmasculine
ENCODING 186
SWIDTH 602 0
DWIDTH 11 0
BBX 7 8 2 6
BITMAP
38
6c
c6
c6
c6
c6
6c
38
ENDCHAR
STARTCHAR guillemotright
ENCODING 187
SWIDTH 602 0
DWIDTH 11 0
BBX 9 8 1 1
BITMAP
8800
4400
2200
1100
1980
2200
4400
8800
ENDCHAR
STARTCHAR onequarter
ENCODING 188
SWIDTH 602 0
DWIDTH 11 0
BBX 11 14 2 0
BITMAP
e060
a040
2080
2100
2100
2200
fc00
04c0
08c0
1140
1240
23e0
4040
c040
ENDCHAR
STARTCHAR onehalf
ENCODING 189
SWIDTH 602 0
DWIDTH 11 0
BBX 11 14 2 0
BITMAP
e060
a040
2080
2100
2100
2200
fc00
05c0
0820
1020
1040
2080
4100
c1e0
ENDCHAR
STARTCHAR threequarters
ENCODING 190
SWIDTH 602 0
DWIDTH 11 0
BBX 11 14 2 0
BITMAP
e060
1040
1080
6100
1100
1200
e400
04c0
08c0
1140
1240
23e0
4040
c040
ENDCHAR
STARTCHAR questiondown
ENCODING 191
SWIDTH 602 0
DWIDTH 11 0
BBX 9 14 1 -4
BITMAP
0c00
0c00
0000
0000
0c00
0c00
0800
1000
2000
4000
c000
c080
6080
3f80
ENDCHAR
STARTCHAR Agrave
ENCODING 192
SWIDTH 602 0
DWIDTH 11 0
BBX 11 17 0 0
BITMAP
0e00
0300
0000
0600
0e00
0e00
0b00
1300
1300
1180
2180
2180
3fc0
40c0
40c0
4060
8060
ENDCHAR
STARTCHAR Aacute
ENCODING 193
SWIDTH 602 0
DWIDTH 11 0
BBX 11 17 0 0
BITMAP
0e00
1800
0000
0600
0e00
0e00
0b00
1300
1300
1180
2180
2180
3fc0
40c0
40c0
4060
8060
ENDCHAR
STARTCHAR Acircumflex
ENCODING 194
SWIDTH 602 0
DWIDTH 11 0
BBX 11 17 0 0
BITMAP
1e00
3300
0000
0600
0e00
0e00
0b00
1300
1300
1180
2180
2180
3fc0
40c0
40c0
4060
8060
ENDCHAR
STARTCHAR Atilde
ENCODING 195
SWIDTH 602 0
DWIDTH 11 0
BBX 11 17 0 0
BITMAP
3d00
2f00
0000
0600
0e00
0e00
0b00
1300
1300
1180
2180
2180
3fc0
40c0
40c0
4060
8060
ENDCHAR
STARTCHAR Adieresis
ENCODING 196
SWIDTH 602 0
DWIDTH 11 0
BBX 11 16 0 0
BITMAP
1300
0000
0600
0e00
0e00
0b00
1300
1300
1180
2180
2180
3fc0
40c0
40c0
4060
8060
ENDCHAR
STARTCHAR Aring
ENCODING 197
SWIDTH 602 0
DWIDTH 11 0
BBX 11 18 0 0
BITMAP
0e00
0a00
0e00
0000
0600
0e00
0e00
0b00
1300
1300
1180
2180
2180
3fc0
40c0
40c0
4060
8060
ENDCHAR
STARTCHAR AE
ENCODING 198
SWIDTH 602 0
DWIDTH 11 0
BBX 12 14 0 0
BITMAP
03e0
0700
0700
0700
0b00
0b00
1300
13e0
1300
2300
3f00
4300
4300
c3f0
ENDCHAR
STARTCHAR Ccedilla
ENCODING 199
SWIDTH 602 0
DWIDTH 11 0
BBX 10 18 1 -4
BITMAP
0fc0
3840
6000
6000
c000
c000
c000
c000
c000
c000
6000
6000
3840
0fc0
0400
0400
0200
0e00
ENDCHAR
STARTCHAR Egrave
ENCODING 200
SWIDTH 602 0
DWIDTH 11 0
BBX 9 17 2 0
BITMAP
3800
0c00
0000
ff80
c000
c000
c000
c000
c000
ff00
c000
c000
c000
c000
c000
c000
ff80
ENDCHAR
STARTCHAR Eacute
ENCODING 201
SWIDTH 602 0
DWIDTH 11 0
BBX 9 17 2 0
BITMAP
1c00
3000
0000
ff80
c000
c000
c000
c000
c000
ff00
c000
c000
c000
c000
c000
c000
ff80
ENDCHAR
STARTCHAR Ecircumflex
ENCODING 202
SWIDTH 602 0
DWIDTH 11 0
BBX 9 17 2 0
BITMAP
1e00
3300
0000
ff80
c000
c000
c000
c000
c000
ff00
c000
c000
c000
c000
c000
c000
ff80
ENDCHAR
STARTCHAR Edieresis
ENCODING 203
SWIDTH 602 0
DWIDTH 11 0
BBX 9 16 2 0
BITMAP
4c00
0000
ff80
c000
c000
c000
c000
c000
ff00
c000
c000
c000
c000
c000
c000
ff80
ENDCHAR
STARTCHAR Igrave
ENCODING 204
SWIDTH 602 0
DWIDTH 11 0
BBX 8 17 2 0
BITMAP
38
0c
00
ff
18
18
18
18
18
18
18
18
18
18
18
18
ff
ENDCHAR
STARTCHAR Iacute
ENCODING 205
SWIDTH 602 0
DWIDTH 11 0
BBX 8 17 2 0
BITMAP
1c
30
00
ff
18
18
18
18
18
18
18
18
18
18
18
18
ff
ENDCHAR
STARTCHAR Icircumflex
ENCODING 206
SWIDTH 602 0
DWIDTH 11 0
BBX 8 17 2 0
BITMAP
3c
66
00
ff
18
18
18
18
18
18
18
18
18
18
18
18
ff
ENDCHAR
STARTCHAR Idieresis
ENCODING 207
SWIDTH 602 0
DWIDTH 11 0
BBX 8 16 2 0
BITMAP
4c
00
ff
18
18
18
18
18
18
18
18
18
18
18
18
ff
ENDCHAR
STARTCHAR Eth
ENCODING 208
SWIDTH 602 0
DWIDTH 11 0
BBX 11 14 0 0
BITMAP
7f00
6180
60c0
6060
6060
6060
f860
6060
6060
6060
60c0
60c0
6180
7f00
ENDCHAR
STARTCHAR Ntilde
ENCODING 209
SWIDTH 602 0
DWIDTH 11 0
BBX 9 17 1 0
BITMAP
3d00
2f00
0000
c080
e080
e080
f080
b080
9880
9880
8c80
8e80
8680
8780
8380
8180
8180
ENDCHAR
STARTCHAR Ograve
ENCODING 210
SWIDTH 602 0
DWIDTH 11 0
BBX 10 17 1 0
BITMAP
1c00
0600
0000
1e00
3300
6180
4080
c0c0
c0c0
c0c0
c0c0
c0c0
c0c0
4080
6180
3300
1e00
ENDCHAR
STARTCHAR Oacute
ENCODING 211
SWIDTH 602 0
DWIDTH 11 0
BBX 10 17 1 0
BITMAP
0e00
1800
0000
1e00
3300
6180
4080
c0c0
c0c0
c0c0
c0c0
c0c0
c0c0
4080
6180
3300
1e00
ENDCHAR
STARTCHAR Ocircumflex
ENCODING 212
SWIDTH 602 0
DWIDTH 11 0
BBX 10 17 1 0
BITMAP
1e00
3300
0000
1e00
3300
6180
4080
c0c0
c0c0
c0c0
c0c0
c0c0
c0c0
4080
6180
3300
1e00
ENDCHAR
STARTCHAR Otilde
ENCODING 213
SWIDTH 602 0
DWIDTH 11 0
BBX 10 17 1 0
BITMAP
3d00
2f00
0000
1e00
3300
6180
4080
c0c0
c0c0
c0c0
c0c0
c0c0
c0c0
4080
6180
3300
1e00
ENDCHAR
STARTCHAR Odieresis
ENCODING 214
SWIDTH 602 0
DWIDTH 11 0
BBX 10 16 1 0
BITMAP
2600
0000
1e00
3300
6180
4080
c0c0
c0c0
c0c0
c0c0
c0c0
c0c0
4080
6180
3300
1e00
ENDCHAR
STARTCHAR multiply
ENCODING 215
SWIDTH 602 0
DWIDTH 11 0
BBX 10 10 1 0
BITMAP
0c00
0c00
0000
0000
ffc0
0000
0000
0000
0c00
0c00
ENDCHAR
STARTCHAR Oslash
ENCODING 216
SWIDTH 602 0
DWIDTH 11 0
BBX 10 14 1 0
BITMAP
1ec0
3380
6180
4280
c2c0
c4c0
c4c0
c8c0
c8c0
d0c0
7080
6180
7300
de00
ENDCHAR
STARTCHAR Ugrave
ENCODING 217
SWIDTH 602 0
DWIDTH 11 0
BBX 9 17 1 0
BITMAP
1c00
0600
0000
c080
c080
c080
c080
c080
c080
c080
c080
c080
c080
c080
c080
6100
3e00
ENDCHAR
STARTCHAR Uacute
ENCODING 218
SWIDTH 602 0
DWIDTH 11 0
BBX 9 17 1 0
BITMAP
1c00
3000
0000
c080
c080
c080
c080
c080
c080
c080
c080
c080
c080
c080
c080
6100
3e00
ENDCHAR
STARTCHAR Ucircumflex
ENCODING 219
SWIDTH 602 0
DWIDTH 11 0
BBX 9 17 1 0
BITMAP
3c00
6600
0000
c080
c080
c080
c080
c080
c080
c080
c080
c080
c080
c080
c080
6100
3e00
ENDCHAR
STARTCHAR Udieresis
ENCODING 220
SWIDTH 602 0
DWIDTH 11 0
BBX 9 16 1 0
BITMAP
2600
0000
c080
c080
c080
c080
c080
c080
c080
c080
c080
c080
c080
c080
6100
3e00
ENDCHAR
STARTCHAR Yacute
ENCODING 221
SWIDTH 602 0
DWIDTH 11 0
BBX 12 17 0 0
BITMAP
0700
0c00
0000
e030
6020
7040
3080
1880
1d00
0f00
0600
0600
0600
0600
0600
0600
0600
ENDCHAR
STARTCHAR Thorn
ENCODING 222
SWIDTH 602 0
DWIDTH 11 0
BBX 9 14 2 0
BITMAP
c000
c000
c000
fe00
c380
c180
c180
c180
c180
c300
fc00
c000
c000
c000
ENDCHAR
STARTCHAR germandbls
ENCODING 223
SWIDTH 602 0
DWIDTH 11 0
BBX 9 15 2 0
BITMAP
7c00
c600
c600
c600
c400
c800
c800
cc00
ce00
c700
c380
c180
c180
d180
df00
ENDCHAR
STARTCHAR agrave
ENCODING 224
SWIDTH 602 0
DWIDTH 11 0
BBX 10 13 1 0
BITMAP
1c00
0600
0000
7e00
4300
0300
0300
3f00
6300
c300
c300
c700
7dc0
ENDCHAR
STARTCHAR aacute
ENCODING 225
SWIDTH 602 0
DWIDTH 11 0
BBX 10 13 1 0
BITMAP
1c00
3000
0000
7e00
4300
0300
0300
3f00
6300
c300
c300
c700
7dc0
ENDCHAR
STARTCHAR acircumflex
ENCODING 226
SWIDTH 602 0
DWIDTH 11 0
BBX 10 13 1 0
BITMAP
1e00
3300
0000
7e00
4300
0300
0300
3f00
6300
c300
c300
c700
7dc0
ENDCHAR
STARTCHAR atilde
ENCODING 227
SWIDTH 602 0
DWIDTH 11 0
BBX 10 13 1 0
BITMAP
3d00
2f00
0000
7e00
4300
0300
0300
3f00
6300
c300
c300
c700
7dc0
ENDCHAR
STARTCHAR adieresis
ENCODING 228
SWIDTH 602 0
DWIDTH 11 0
BBX 10 12 1 0
BITMAP
2600
0000
7e00
4300
0300
0300
3f00
6300
c300
c300
c700
7dc0
ENDCHAR
STARTCHAR aring
ENCODING 229
SWIDTH 602 0
DWIDTH 11 0
BBX 10 14 1 0
BITMAP
1c00
1400
1c00
0000
7e00
4300
0300
0300
3f00
6300
c300
c300
c700
7dc0
ENDCHAR
STARTCHAR ae
ENCODING 230
SWIDTH 602 0
DWIDTH 11 0
BBX 11 10 0 0
BITMAP
7b80
4e40
0c60
0c60
7fe0
ec00
cc00
cc00
ce20
7be0
ENDCHAR
STARTCHAR ccedilla
ENCODING 231
SWIDTH 602 0
DWIDTH 11 0
BBX 9 14 1 -4
BITMAP
1f80
7080
6000
c000
c000
c000
c000
6000
7080
1f80
0800
0800
0400
1c00
ENDCHAR
STARTCHAR egrave
ENCODING 232
SWIDTH 602 0
DWIDTH 11 0
BBX 9 13 1 0
BITMAP
1c00
0600
0000
1e00
6300
4180
c180
ff80
c000
c000
4000
6080
1f80
ENDCHAR
STARTCHAR eacute
ENCODING 233
SWIDTH 602 0
DWIDTH 11 0
BBX 9 13 1 0
BITMAP
1c00
3000
0000
1e00
6300
4180
c180
ff80
c000
c000
4000
6080
1f80
ENDCHAR
STARTCHAR ecircumflex
ENCODING 234
SWIDTH 602 0
DWIDTH 11 0
BBX 9 13 1 0
BITMAP
3c00
6600
0000
1e00
6300
4180
c180
ff80
c000
c000
4000
6080
1f80
ENDCHAR
STARTCHAR edieresis
ENCODING 235
SWIDTH 602 0
DWIDTH 11 0
BBX 9 12 1 0
BITMAP
2600
0000
1e00
6300
4180
c180
ff80
c000
c000
4000
6080
1f80
ENDCHAR
STARTCHAR igrave
ENCODING 236
SWIDTH 602 0
DWIDTH 11 0
BBX 7 13 1 0
BITMAP
1c
06
00
fc
0c
0c
0c
0c
0c
0c
0c
0c
0c
ENDCHAR
STARTCHAR iacute
ENCODING 237
SWIDTH 602 0
DWIDTH 11 0
BBX 6 13 1 0
BITMAP
1c
30
00
fc
0c
0c
0c
0c
0c
0c
0c
0c
0c
ENDCHAR
STARTCHAR icircumflex
ENCODING 238
SWIDTH 602 0
DWIDTH 11 0
BBX 7 13 1 0
BITMAP
3c
66
00
fc
0c
0c
0c
0c
0c
0c
0c
0c
0c
ENDCHAR
STARTCHAR idieresis
ENCODING 239
SWIDTH 602 0
DWIDTH 11 0
BBX 7 12 1 0
BITMAP
26
00
fc
0c
0c
0c
0c
0c
0c
0c
0c
0c
ENDCHAR
STARTCHAR eth
ENCODING 240
SWIDTH 602 0
DWIDTH 11 0
BBX 9 14 1 0
BITMAP
fc00
1c00
6c00
4600
3f00
6300
c180
c180
c180
c180
c180
4100
6300
3e00
ENDCHAR
STARTCHAR ntilde
ENCODING 241
SWIDTH 602 0
DWIDTH 11 0
BBX 8 13 2 0
BITMAP
7a
5e
00
ce
df
e3
c3
c3
c3
c3
c3
c3
c3
ENDCHAR
STARTCHAR ograve
ENCODING 242
SWIDTH 602 0
DWIDTH 11 0
BBX 10 13 1 0
BITMAP
1c00
0600
0000
1e00
6180
6180
c0c0
c0c0
c0c0
c0c0
6180
6180
1e00
ENDCHAR
STARTCHAR oacute
ENCODING 243
SWIDTH 602 0
DWIDTH 11 0
BBX 10 13 1 0
BITMAP
0e00
1800
0000
1e00
6180
6180
c0c0
c0c0
c0c0
c0c0
6180
6180
1e00
ENDCHAR
STARTCHAR ocircumflex
ENCODING 244
SWIDTH 602 0
DWIDTH 11 0
BBX 10 13 1 0
BITMAP
1e00
3300
0000
1e00
6180
6180
c0c0
c0c0
c0c0
c0c0
6180
6180
1e00
ENDCHAR
STARTCHAR otilde
ENCODING 245
SWIDTH 602 0
DWIDTH 11 0
BBX 10 13 1 0
BITMAP
3d00
2f00
0000
1e00
6180
6180
c0c0
c0c0
c0c0
c0c0
6180
6180
1e00
ENDCHAR
STARTCHAR odieresis
ENCODING 246
SWIDTH 602 0
DWIDTH 11 0
BBX 10 12 1 0
BITMAP
2600
0000
1e00
6180
6180
c0c0
c0c0
c0c0
c0c0
6180
6180
1e00
ENDCHAR
STARTCHAR divide
ENCODING 247
SWIDTH 602 0
DWIDTH 11 0
BBX 10 10 1 0
BITMAP
8040
4080
2100
1200
0c00
0c00
1200
2100
4080
8040
ENDCHAR
STARTCHAR oslash
ENCODING 248
SWIDTH 602 0
DWIDTH 11 0
BBX 10 10 1 0
BITMAP
1fc0
6180
63c0
c2c0
c4c0
c8c0
d0c0
f180
6180
fe00
ENDCHAR
STARTCHAR ugrave
ENCODING 249
SWIDTH 602 0
DWIDTH 11 0
BBX 8 13 2 0
BITMAP
38
0c
00
c3
c3
c3
c3
c3
c3
c3
c7
fb
73
ENDCHAR
STARTCHAR uacute
ENCODING 250
SWIDTH 602 0
DWIDTH 11 0
BBX 8 13 2 0
BITMAP
1c
30
00
c3
c3
c3
c3
c3
c3
c3
c7
fb
73
ENDCHAR
STARTCHAR ucircumflex
ENCODING 251
SWIDTH 602 0
DWIDTH 11 0
BBX 8 13 2 0
BITMAP
3c
66
00
c3
c3
c3
c3
c3
c3
c3
c7
fb
73
ENDCHAR
STARTCHAR udieresis
ENCODING 252
SWIDTH 602 0
DWIDTH 11 0
BBX 8 12 2 0
BITMAP
26
00
c3
c3
c3
c3
c3
c3
c3
c7
fb
73
ENDCHAR
STARTCHAR yacute
ENCODING 253
SWIDTH 602 0
DWIDTH 11 0
BBX 10 17 1 -4
BITMAP
0e00
1800
0000
c0c0
e080
6080
6100
3100
3200
1a00
1a00
1c00
0c00
0800
0800
1000
6000
ENDCHAR
STARTCHAR thorn
ENCODING 254
SWIDTH 602 0
DWIDTH 11 0
BBX 9 17 2 -4
BITMAP
c000
c000
c000
de00
e300
c180
c180
c180
c180
c180
c300
e300
de00
c000
c000
c000
c000
ENDCHAR
STARTCHAR ydieresis
ENCODING 255
SWIDTH 602 0
DWIDTH 11 0
BBX 10 16 1 -4
BITMAP
2600
0000
c0c0
e080
6080
6100
3100
3200
1a00
1a00
1c00
0c00
0800
0800
1000
6000
ENDCHAR
ENDFONT
